<?xml version="1.0" encoding="UTF-8"?>
<svg version="1.1" xmlns="http://www.w3.org/2000/svg" width="512" height="512">
<path d="M0 0 C20.16553492 17.37668435 33.95129405 39.65539649 36.9375 66.53125 C37.04341053 69.51235987 37.03322362 72.48629121 37 75.46875 C36.99548828 76.24798828 36.99097656 77.02722656 36.98632812 77.83007812 C36.97466908 79.73050268 36.95673877 81.63088706 36.9375 83.53125 C37.91847656 83.55703125 38.89945312 83.5828125 39.91015625 83.609375 C67.22565091 84.63003645 89.98563274 96.39496289 108.41015625 116.1875 C125.37301378 135.97265115 132.68233764 160.65812945 130.9375 186.53125 C128.39005285 213.15598721 115.65427112 235.05891749 95.5625 252.34375 C86.68516198 259.25819587 77.48433275 264.28868948 66.875 267.90625 C66.18011475 268.14496826 65.48522949 268.38368652 64.76928711 268.62963867 C49.80590268 273.40114807 34.64761551 272.77203335 19.125 272.65625 C16.77539443 272.64620133 14.42578472 272.63707882 12.07617188 272.62890625 C6.36318951 272.60703961 0.65036449 272.57371123 -5.0625 272.53125 C-5.05583817 273.28213898 -5.04917633 274.03302795 -5.04231262 274.80667114 C-4.98209432 281.89795381 -4.9364713 288.98914726 -4.90706348 296.08061409 C-4.89143609 299.7260546 -4.87025195 303.37128307 -4.83618164 307.01660156 C-4.80348283 310.53738349 -4.78562499 314.05796201 -4.77786827 317.57888412 C-4.76966268 319.56967635 -4.74626002 321.56038725 -4.72261047 323.55105591 C-4.72238388 324.77186859 -4.72215729 325.99268127 -4.72192383 327.25048828 C-4.71193108 328.85599045 -4.71193108 328.85599045 -4.70173645 330.493927 C-5.42894578 336.61641254 -8.52811627 340.54983989 -13.0625 344.53125 C-16.66394309 346.88165159 -19.8316692 346.78743709 -24.07089233 346.79867554 C-24.7765312 346.80320665 -25.48217006 346.80773776 -26.20919192 346.81240618 C-28.57360989 346.82506619 -30.93779798 346.82342881 -33.30224609 346.82177734 C-34.99751583 346.82776159 -36.69278284 346.8345669 -38.38804626 346.84213257 C-42.99345184 346.85981012 -47.59878312 346.86448868 -52.20421934 346.86576414 C-56.04866529 346.86766302 -59.89309393 346.8750204 -63.73753321 346.88210833 C-72.80777846 346.89839648 -81.877984 346.90327689 -90.94824219 346.90185547 C-100.30501186 346.90065384 -109.66155095 346.92175901 -119.01826227 346.9533428 C-127.05150226 346.97949298 -135.08466689 346.9902233 -143.11794913 346.98894465 C-147.9158772 346.98843465 -152.71360037 346.99413854 -157.51148605 347.01530075 C-162.02431217 347.03466203 -166.53673747 347.03482214 -171.04957771 347.02026749 C-172.70477572 347.01817567 -174.35999868 347.02290248 -176.01515388 347.0349884 C-178.27728695 347.05043512 -180.53803692 347.04113821 -182.80014038 347.02572632 C-184.06517584 347.02681585 -185.3302113 347.02790539 -186.63358116 347.02902794 C-191.79848001 346.27923687 -195.60890867 343.55105472 -198.875 339.53125 C-202.07903468 335.13714529 -202.1873063 331.9390491 -202.17602539 326.56933594 C-202.17594986 325.36839294 -202.17587433 324.16744995 -202.17579651 322.93011475 C-202.17063522 321.63833313 -202.16547394 320.34655151 -202.16015625 319.015625 C-202.15829017 317.67612765 -202.15686716 316.33662962 -202.15586853 314.99713135 C-202.15205835 311.47902528 -202.14224091 307.96096079 -202.13116455 304.44287109 C-202.12091817 300.84994061 -202.116364 297.25700339 -202.11132812 293.6640625 C-202.10061725 286.61977471 -202.08355887 279.57551507 -202.0625 272.53125 C-203.42527573 272.54124275 -203.42527573 272.54124275 -204.81558228 272.55143738 C-213.43485316 272.61189008 -222.05405144 272.65739647 -230.67348671 272.68668652 C-235.10338105 272.7022517 -239.53309821 272.72331977 -243.96289062 272.75756836 C-248.24880048 272.790492 -252.53454139 272.80817152 -256.82056808 272.81588173 C-258.44460072 272.82136669 -260.06862555 272.83207477 -261.69258499 272.84844017 C-281.61724767 273.04099456 -298.12833175 269.13278175 -314.0625 256.53125 C-315.609375 255.4175 -315.609375 255.4175 -317.1875 254.28125 C-330.52890457 241.5199065 -337.82095454 224.15135846 -338.53759766 205.80371094 C-338.76230608 185.29796557 -331.08382141 168.35873497 -317.08203125 153.41796875 C-306.09031567 142.79745557 -289.99787045 135.46458508 -274.58984375 135.4375 C-273.42582031 135.4684375 -272.26179688 135.499375 -271.0625 135.53125 C-271.23007812 134.64566406 -271.39765625 133.76007813 -271.5703125 132.84765625 C-274.94336097 112.33183613 -270.32113254 94.02184542 -258.25390625 76.9765625 C-248.93943558 64.64472809 -235.44094208 55.36521765 -220.0625 52.53125 C-199.7923426 50.12291447 -182.00508016 53.62646359 -165.0625 65.53125 C-164.0725 66.19125 -163.0825 66.85125 -162.0625 67.53125 C-161.87457886 66.67128418 -161.87457886 66.67128418 -161.68286133 65.79394531 C-156.93416436 44.31820557 -156.93416436 44.31820557 -152.0625 34.53125 C-151.36833984 33.12166016 -151.36833984 33.12166016 -150.66015625 31.68359375 C-147.40598488 25.40830839 -143.61861015 19.92342985 -139.0625 14.53125 C-138.07830078 13.32855469 -138.07830078 13.32855469 -137.07421875 12.1015625 C-103.09858911 -27.77477065 -40.62386459 -32.23415343 0 0 Z " fill="#5BADFE" transform="translate(358.0625,41.46875)"/>
<path d="M0 0 C1.54999163 -0.0030228 3.09998177 -0.00691292 4.64996928 -0.01159257 C8.8976753 -0.0218649 13.14529685 -0.01969269 17.39300978 -0.01541197 C21.97868039 -0.01294335 26.56433073 -0.02196064 31.1499939 -0.02944946 C40.12960649 -0.04219494 49.10918917 -0.04399032 58.08880929 -0.0416492 C65.3887759 -0.03986562 72.68873343 -0.04161655 79.98869896 -0.04587364 C81.54761289 -0.04676643 81.54761289 -0.04676643 83.13802003 -0.04767724 C85.24937672 -0.04888901 87.3607334 -0.05010314 89.47209009 -0.05131962 C109.27020027 -0.0621947 129.06829342 -0.06003289 148.86640456 -0.05393478 C166.97122683 -0.04876636 185.07599528 -0.06001914 203.18080691 -0.07903299 C221.77773247 -0.0984137 240.37463257 -0.10666694 258.97156829 -0.10290974 C269.40952843 -0.10099796 279.84744277 -0.10348298 290.28539467 -0.11762428 C299.1719548 -0.12954204 308.05844096 -0.13093856 316.94500212 -0.11883412 C321.47698988 -0.11294806 326.00884235 -0.11183843 330.54082108 -0.12383652 C334.69412987 -0.13470409 338.84719054 -0.1315816 343.00048777 -0.11757483 C344.49841548 -0.1149303 345.9963627 -0.11728676 347.49427126 -0.1253107 C362.0915234 -0.19804188 375.03780321 2.31573387 386.14225769 12.41304016 C395.34715357 22.44510411 398.46906708 33.52287783 398.11882019 46.90522766 C397.15087995 58.45329244 391.55802 68.52853572 383.16569519 76.44038391 C371.17803303 85.81328755 358.27061352 86.56293293 343.62445068 86.5146637 C342.09335731 86.51697119 340.56226505 86.52014965 339.03117508 86.52411819 C334.84499101 86.53243522 330.65889862 86.52835501 326.4727143 86.52214575 C321.9497955 86.51760954 317.42689215 86.52461084 312.90397644 86.53010559 C304.05163621 86.53898897 295.19932994 86.53708221 286.34698839 86.53128031 C279.15052175 86.52675939 271.95406462 86.52615278 264.75759697 86.52832794 C263.21990472 86.52878764 263.21990472 86.52878764 261.65114797 86.52925663 C259.56845935 86.52989609 257.48577074 86.53054452 255.40308212 86.53120181 C235.88298979 86.53690209 216.36291626 86.5303521 196.84282701 86.51960108 C180.10400478 86.51066718 163.36521029 86.51221687 146.62638855 86.5214386 C127.17660994 86.53214887 107.7268478 86.53635139 88.27706665 86.53021407 C86.20183083 86.52957699 84.126595 86.52894825 82.05135918 86.52832794 C81.03037198 86.52801939 80.00938478 86.52771084 78.95745857 86.52739294 C71.77251354 86.52566817 64.58757898 86.52857643 57.40263557 86.53328705 C48.64239735 86.53890434 39.88219496 86.53736164 31.12196083 86.52672556 C26.65479575 86.52148008 22.18769034 86.51939291 17.72052574 86.52602386 C13.62655519 86.5320088 9.53269929 86.52866644 5.43873905 86.51806876 C3.96240633 86.51584547 2.4860638 86.51694679 1.00973744 86.52182034 C-15.72969772 86.57281508 -28.43360894 84.56639178 -40.90071106 72.70600891 C-49.00998738 63.93846664 -52.9031462 52.76932247 -52.44367981 40.82319641 C-51.10257266 28.60422018 -46.46395998 18.56568856 -37.49836731 10.08100891 C-25.96241503 1.09145413 -14.07684218 -0.03888036 0 0 Z " fill="#5BADFE" transform="translate(94.16242980957031,405.7393035888672)"/>
<path d="M0 0 C0.6870391 -0.00367669 1.37407819 -0.00735338 2.08193666 -0.01114148 C4.38945558 -0.02217488 6.69692947 -0.02602158 9.00447083 -0.02983093 C10.6569381 -0.0360959 12.30940397 -0.04274273 13.96186829 -0.04974365 C19.39378376 -0.07078432 24.82569952 -0.08114673 30.25764465 -0.09111023 C32.12811612 -0.09515792 33.99858744 -0.09927485 35.86905861 -0.10346031 C44.65764825 -0.12251279 53.44622948 -0.13674313 62.2348358 -0.14507228 C72.37616516 -0.15484229 82.5172761 -0.18115539 92.65852851 -0.22157317 C100.49899072 -0.25174756 108.33939038 -0.26654245 116.17990953 -0.26985329 C120.86167833 -0.27220248 125.54321382 -0.28114561 130.22492027 -0.30631447 C134.63184398 -0.32962304 139.03838123 -0.33381728 143.44535065 -0.32355309 C145.05940093 -0.32305827 146.67347041 -0.32936263 148.28746223 -0.34310913 C165.49631678 -0.48143144 165.49631678 -0.48143144 172.11701965 5.92842102 C172.47924622 6.49560852 172.84147278 7.06279602 173.2146759 7.64717102 C173.78508606 8.49795227 173.78508606 8.49795227 174.36701965 9.36592102 C176.17411435 12.90255271 176.40434858 16.25234574 176.4176178 20.18144226 C176.42332794 21.1963826 176.42903809 22.21132294 176.43492126 23.25701904 C176.43659805 24.91846703 176.43659805 24.91846703 176.43830872 26.61347961 C176.44327362 27.784608 176.44823853 28.95573639 176.45335388 30.16235352 C176.46544845 33.37110078 176.47291677 36.57981164 176.47736454 39.78857756 C176.48029964 41.79474511 176.48440523 43.80090699 176.48886871 45.80707169 C176.50253473 52.08829292 176.5122062 58.36950115 176.5160706 64.65073621 C176.52055163 71.8936431 176.53810521 79.13636131 176.5670712 86.37921083 C176.5887043 91.98358907 176.59877572 97.58791428 176.60011172 103.19233382 C176.60115845 106.53711655 176.60848874 109.88158067 176.62493134 113.22634506 C176.64197023 116.95840035 176.64011666 120.68999505 176.63362122 124.42207336 C176.642836 125.52565689 176.65205078 126.62924042 176.6615448 127.76626587 C176.62235439 134.94813855 175.73057513 139.37923343 170.8396759 144.89717102 C166.29585928 148.88686367 163.33184715 149.398523 157.26878357 149.41459656 C156.56314471 149.41912767 155.85750584 149.42365878 155.13048398 149.4283272 C152.76606602 149.44098721 150.40187792 149.43934983 148.03742981 149.43769836 C146.34216007 149.44368261 144.64689306 149.45048792 142.95162964 149.45805359 C138.34622406 149.47573114 133.74089279 149.4804097 129.13545656 149.48168516 C125.29101061 149.48358404 121.44658198 149.49094143 117.60214269 149.49802935 C108.53189745 149.5143175 99.46169191 149.51919791 90.39143372 149.51777649 C81.03466404 149.51657486 71.67812495 149.53768003 62.32141364 149.56926382 C54.28817364 149.595414 46.25500901 149.60614432 38.22172678 149.60486567 C33.4237987 149.60435568 28.62607553 149.61005956 23.82818985 149.63122177 C19.31536373 149.65058305 14.80293843 149.65074316 10.29009819 149.63618851 C8.63490018 149.63409669 6.97967722 149.6388235 5.32452202 149.65090942 C3.06238896 149.66635614 0.80163899 149.65705923 -1.46046448 149.64164734 C-2.72549994 149.64273687 -3.99053539 149.64382641 -5.29390526 149.64494896 C-10.45880411 148.8951579 -14.26923276 146.16697574 -17.5353241 142.14717102 C-20.50888231 138.06914833 -20.847662 135.1505535 -20.85221863 130.18501282 C-20.85531036 129.18514343 -20.8584021 128.18527405 -20.86158752 127.15510559 C-20.85962372 126.06322937 -20.85765991 124.97135315 -20.8556366 123.84638977 C-20.85713715 122.69014099 -20.8586377 121.53389221 -20.86018372 120.34260559 C-20.86256385 116.50659366 -20.85621856 112.67067386 -20.8478241 108.83467102 C-20.84560852 107.52326141 -20.84339294 106.21185181 -20.84111023 104.86070251 C-20.82547306 96.42517673 -20.79043708 87.98981526 -20.74565125 79.55439758 C-20.72999314 76.60453306 -20.71614782 73.65466885 -20.7039032 70.70478821 C-20.66692438 61.97376638 -20.60608387 53.2434137 -20.51329041 44.51280212 C-20.48441838 41.73526338 -20.46455234 38.95788254 -20.45237732 36.18022156 C-20.4346427 32.28733711 -20.38494393 28.39521497 -20.3321991 24.50263977 C-20.33096039 23.35106384 -20.32972168 22.19948792 -20.32844543 21.01301575 C-20.20886156 14.52530022 -19.65116246 10.3943087 -15.7228241 5.14717102 C-10.38748745 1.00956301 -6.65458693 0.02306225 0 0 Z " fill="#FCC62E" transform="translate(176.7228240966797,238.8528289794922)"/>
<path d="M0 0 C20.22528021 17.42816699 33.84077134 39.62278248 36.9375 66.53125 C37.00150078 68.84295807 37.02383991 71.15627904 37 73.46875 C36.99097656 74.61214844 36.98195313 75.75554687 36.97265625 76.93359375 C36.95525391 78.21943359 36.95525391 78.21943359 36.9375 79.53125 C36.6075 79.53125 36.2775 79.53125 35.9375 79.53125 C35.71835937 78.40589844 35.49921875 77.28054687 35.2734375 76.12109375 C30.0351925 50.30887783 18.50863469 30.21486979 -3.42578125 14.87890625 C-13.59916591 8.33530532 -25.34410005 5.11593434 -37.0625 2.53125 C-37.79364014 2.35706543 -38.52478027 2.18288086 -39.27807617 2.00341797 C-42.63472507 1.43421508 -45.82928138 1.40149257 -49.234375 1.3984375 C-49.91622864 1.39748077 -50.59808228 1.39652405 -51.30059814 1.39553833 C-52.7394622 1.39486022 -54.17832938 1.39668868 -55.6171875 1.40087891 C-57.79173877 1.40619921 -59.96608037 1.40093857 -62.140625 1.39453125 C-72.64803489 1.3344243 -72.64803489 1.3344243 -83.0625 2.53125 C-85.2020538 4.93607039 -85.2020538 4.93607039 -86.453125 6.8046875 C-88.67664652 9.19011593 -91.1567011 10.31444721 -94.0625 11.78125 C-116.60702141 23.39741018 -131.93040184 43.43408108 -139.68359375 67.45556641 C-141.51683754 73.49898038 -143.09158921 79.54123591 -143.6875 85.84375 C-144.0625 89.53125 -144.0625 89.53125 -146.0625 91.53125 C-146.44019531 91.03496094 -146.81789062 90.53867188 -147.20703125 90.02734375 C-155.40960391 79.90379389 -166.17201651 74.05550697 -179.0625 72.53125 C-195.42366518 71.30576517 -209.17489865 73.47151311 -222.0625 84.53125 C-231.29426579 93.04437534 -236.81562356 104.98876951 -237.4765625 117.46484375 C-237.55562635 119.63251099 -237.62573442 121.80052092 -237.6875 123.96875 C-237.72617188 125.08185547 -237.76484375 126.19496094 -237.8046875 127.34179688 C-237.89840966 130.07145476 -237.98412294 132.80111563 -238.0625 135.53125 C-239.15046875 135.68980469 -240.2384375 135.84835938 -241.359375 136.01171875 C-250.52657693 137.43123751 -258.71249037 139.31011253 -267.0625 143.53125 C-268.05765625 144.02367187 -269.0528125 144.51609375 -270.078125 145.0234375 C-285.00038187 153.02023669 -295.01134338 165.90051585 -301.0625 181.53125 C-306.32880213 202.01131385 -304.8277724 221.11255968 -294.3125 239.71875 C-284.78980622 254.61754686 -270.34857119 265.58678664 -252.9765625 269.49609375 C-249.35258303 270.25739137 -245.71450081 270.91759413 -242.0625 271.53125 C-242.0625 271.86125 -242.0625 272.19125 -242.0625 272.53125 C-246.79065638 272.60651453 -251.51844922 272.66036619 -256.24707031 272.69604492 C-257.84902027 272.71094902 -259.4509308 272.73127947 -261.05273438 272.75756836 C-281.25671404 273.08037631 -297.88688793 269.32372752 -314.0625 256.53125 C-315.609375 255.4175 -315.609375 255.4175 -317.1875 254.28125 C-330.52890457 241.5199065 -337.82095454 224.15135846 -338.53759766 205.80371094 C-338.76230608 185.29796557 -331.08382141 168.35873497 -317.08203125 153.41796875 C-306.09031567 142.79745557 -289.99787045 135.46458508 -274.58984375 135.4375 C-273.42582031 135.4684375 -272.26179688 135.499375 -271.0625 135.53125 C-271.23007812 134.64566406 -271.39765625 133.76007813 -271.5703125 132.84765625 C-274.94336097 112.33183613 -270.32113254 94.02184542 -258.25390625 76.9765625 C-248.93943558 64.64472809 -235.44094208 55.36521765 -220.0625 52.53125 C-199.7923426 50.12291447 -182.00508016 53.62646359 -165.0625 65.53125 C-164.0725 66.19125 -163.0825 66.85125 -162.0625 67.53125 C-161.87457886 66.67128418 -161.87457886 66.67128418 -161.68286133 65.79394531 C-156.93416436 44.31820557 -156.93416436 44.31820557 -152.0625 34.53125 C-151.36833984 33.12166016 -151.36833984 33.12166016 -150.66015625 31.68359375 C-147.40598488 25.40830839 -143.61861015 19.92342985 -139.0625 14.53125 C-138.07830078 13.32855469 -138.07830078 13.32855469 -137.07421875 12.1015625 C-103.09858911 -27.77477065 -40.62386459 -32.23415343 0 0 Z " fill="#2A93FC" transform="translate(358.0625,41.46875)"/>
<path d="M0 0 C6.70289464 6.23499777 11.64361536 13.12089287 15.78125 21.23828125 C16.10303223 21.86605469 16.42481445 22.49382812 16.75634766 23.140625 C24.73567756 39.64783736 22.40625 52.91432752 22.40625 72.23828125 C-22.80375 72.23828125 -68.01375 72.23828125 -114.59375 72.23828125 C-114.59375 33.69315105 -114.59375 33.69315105 -107.96875 21.11328125 C-107.62247559 20.44296875 -107.27620117 19.77265625 -106.91943359 19.08203125 C-97.75101682 1.95124447 -83.32551623 -8.01555862 -65.609375 -14.92578125 C-42.36077731 -21.37034071 -18.2769836 -15.35613653 0 0 Z " fill="#FDFEFF" transform="translate(300.59375,166.76171875)"/>
<path d="M0 0 C1.32493048 3.97479145 0.15240804 6.00802538 -1 10 C-2.24210974 23.09992477 0.04023896 34.18140949 8.02734375 44.74609375 C14.24155755 51.84629447 21.07176728 55.27762084 30 58 C30.99 58.33 31.98 58.66 33 59 C35.07177851 59.09616223 37.14657271 59.13095868 39.22057915 59.13422108 C40.53177534 59.13867892 41.84297153 59.14313676 43.19390094 59.14772969 C44.65782158 59.14764039 46.12174222 59.14745053 47.58566284 59.14717102 C49.13403768 59.1504695 50.68241166 59.15419504 52.23078454 59.1583125 C56.49730313 59.16834293 60.76380766 59.17205099 65.03033638 59.17470181 C69.62771835 59.17860193 74.22508914 59.18818066 78.82246399 59.19691467 C89.93297827 59.21669033 101.04349348 59.22674799 112.15402097 59.23564246 C117.38636375 59.24002472 122.61870553 59.2453918 127.85104752 59.25063133 C145.24633766 59.26764689 162.64162717 59.28213994 180.03692436 59.28938007 C184.55261104 59.29128998 189.06829772 59.2932103 193.58398438 59.29516602 C195.26751722 59.29589163 195.26751722 59.29589163 196.98506083 59.2966319 C215.15675845 59.3049279 233.32839014 59.3302561 251.50005899 59.36274669 C270.15785281 59.39583426 288.81561316 59.41383049 307.47343647 59.41702431 C317.94844658 59.41918815 328.42336064 59.42791795 338.89834213 59.45348549 C347.82193772 59.47521589 356.74541393 59.48323149 365.66903298 59.47351871 C370.21950643 59.46898042 374.76973373 59.47083265 379.32017326 59.49028015 C383.49296072 59.50795895 387.66532332 59.50687613 391.83811559 59.49138286 C393.34094425 59.48901388 394.8438027 59.49329322 396.34658597 59.50521151 C409.89410428 59.60592559 421.06732723 57.28232785 432 49 C432.99 48.34 433.98 47.68 435 47 C432.71185027 55.13564348 425.08936745 61.83777555 418 66 C410.25945227 69.45126986 402.98357001 71.12329182 394.49839497 71.12863445 C393.2008926 71.1318589 391.90339024 71.13508335 390.56656963 71.1384055 C389.13367917 71.13693448 387.70078881 71.13536677 386.26789856 71.13371277 C384.74025834 71.1355815 383.2126186 71.13788246 381.68497962 71.14057809 C377.48978312 71.14669489 373.29460654 71.14656263 369.0994066 71.14538372 C364.57369388 71.14517968 360.04798757 71.15069882 355.52227783 71.15544128 C346.65603057 71.16374803 337.78978996 71.16649615 328.92353914 71.16705366 C321.71553705 71.16752887 314.50753715 71.16958383 307.29953575 71.17275429 C286.86048278 71.18156137 266.42143507 71.18617365 245.98238019 71.18542381 C244.88048721 71.18538386 243.77859423 71.1853439 242.64331055 71.18530273 C241.54007089 71.18526185 240.43683123 71.18522097 239.30016007 71.18517885 C221.42478477 71.18477249 203.54943054 71.19433933 185.67406134 71.2084411 C167.31676532 71.22280868 148.95947958 71.22971106 130.6021778 71.22884732 C120.29721829 71.22851546 109.99228087 71.23125789 99.68732643 71.24202538 C90.91235562 71.25113545 82.13741692 71.25330149 73.36244342 71.24651595 C68.88720266 71.24325316 64.41202345 71.24318536 59.93678856 71.2518692 C55.83526073 71.25974585 51.73384316 71.25829088 47.63231798 71.24958507 C46.15317228 71.24805263 44.67401831 71.24985653 43.19488237 71.25544515 C26.44537101 71.31450861 13.73651969 69.31301952 1.26171875 57.4453125 C-6.84755757 48.67777023 -10.74071639 37.50862606 -10.28125 25.5625 C-9.28267235 16.46434806 -6.68751332 6.68751332 0 0 Z " fill="#2992FB" transform="translate(52,421)"/>
<path d="M0 0 C9.70978887 5.76272023 16.09513778 12.95819327 20.1953125 23.5234375 C22.1953125 31.5234375 22.1953125 31.5234375 22.1953125 58.5234375 C-5.8546875 58.5234375 -33.9046875 58.5234375 -62.8046875 58.5234375 C-62.8046875 21.49904726 -62.8046875 21.49904726 -50.2421875 7.7109375 C-36.09127068 -4.98860323 -17.37995191 -9.14989111 0 0 Z " fill="#5CAEFF" transform="translate(274.8046875,180.4765625)"/>
<path d="M0 0 C-0.7425 0.70125 -1.485 1.4025 -2.25 2.125 C-8.98839025 9.16968072 -9.58628966 13.40465324 -9.51757812 23.06054688 C-9.5245874 24.2709816 -9.53159668 25.48141632 -9.53881836 26.72853088 C-9.55337699 30.03667804 -9.55000792 33.34382056 -9.53730202 36.65191078 C-9.5271456 40.12045221 -9.536575 43.58895193 -9.54284668 47.05749512 C-9.55011545 52.88134429 -9.5405558 58.70499029 -9.52148438 64.52880859 C-9.49971687 71.25340479 -9.50676881 77.97751583 -9.52879 84.70210028 C-9.54696615 90.48489952 -9.54949158 96.26755306 -9.53903532 102.05037165 C-9.53281246 105.5001689 -9.53193115 108.94973842 -9.54518127 112.39952087 C-9.55892546 116.24635547 -9.53985385 120.09265052 -9.51757812 123.93945312 C-9.52972351 125.64621971 -9.52972351 125.64621971 -9.54211426 127.38746643 C-9.4757564 133.57269989 -9.17700708 137.31449605 -5 142 C-2.43415478 144.25293726 0.15908115 146.1060541 3 148 C0.45716766 148.10871967 -2.08095088 148.18762401 -4.625 148.25 C-5.33785156 148.28351563 -6.05070312 148.31703125 -6.78515625 148.3515625 C-12.81687549 148.46223625 -16.21726587 146.64392792 -20.64453125 142.4375 C-24.35992361 137.86470941 -25.12409554 134.81236856 -25.12939453 129.0378418 C-25.13248627 128.03797241 -25.135578 127.03810303 -25.13876343 126.00793457 C-25.13679962 124.91605835 -25.13483582 123.82418213 -25.1328125 122.69921875 C-25.13431305 121.54296997 -25.1358136 120.38672119 -25.13735962 119.19543457 C-25.13973975 115.35942264 -25.13339446 111.52350284 -25.125 107.6875 C-25.12278442 106.37609039 -25.12056885 105.06468079 -25.11828613 103.71353149 C-25.10264897 95.27800571 -25.06761298 86.84264424 -25.02282715 78.40722656 C-25.00716904 75.45736204 -24.99332372 72.50749783 -24.9810791 69.55761719 C-24.94410028 60.82659536 -24.88325978 52.09624268 -24.79046631 43.3656311 C-24.76159428 40.58809236 -24.74172824 37.81071151 -24.72955322 35.03305054 C-24.71181861 31.14016609 -24.66211983 27.24804395 -24.609375 23.35546875 C-24.60813629 22.20389282 -24.60689758 21.05231689 -24.60562134 19.86584473 C-24.45941307 11.93369139 -23.28177628 7.36813882 -17.625 1.5625 C-11.90569763 -0.90271654 -6.13933405 -0.30276168 0 0 Z " fill="#F8AC00" transform="translate(181,240)"/>
<path d="M0 0 C4.64398163 2.79804751 7.62474362 6.5436749 9.625 11.5625 C10.85899164 18.82440762 10.4118333 24.89469243 6.109375 30.9765625 C4.625 32.5625 4.625 32.5625 2.5637207 33.6484375 C0.06844812 36.11197321 0.14354947 38.00460755 0.09629822 41.41537476 C0.10448074 42.19353546 0.11266327 42.97169617 0.12109375 43.7734375 C0.11167252 44.57858795 0.10225128 45.3837384 0.09254456 46.21328735 C0.06385245 48.78828295 0.06081721 51.36235734 0.0625 53.9375 C0.05888939 56.5053675 0.04930716 59.07256181 0.02174377 61.64028931 C0.00499375 63.23735079 0.00204985 64.83463339 0.01475525 66.43173218 C-0.02820278 70.99194484 -0.51278316 73.95922217 -3.375 77.5625 C-7.04692113 80.01044742 -10.10606028 80.27685887 -14.375 79.5625 C-17.34358157 77.35509319 -18.20365791 76.07652627 -19.375 72.5625 C-19.45760143 69.81852067 -19.4879079 67.09531203 -19.48046875 64.3515625 C-19.49392364 62.69790361 -19.50894659 61.04425687 -19.52539062 59.390625 C-19.54822799 56.78765688 -19.56249313 54.18606317 -19.55004883 51.58300781 C-19.5412245 49.06735908 -19.57014206 46.55442959 -19.60546875 44.0390625 C-19.59323776 43.26495026 -19.58100677 42.49083801 -19.56840515 41.69326782 C-19.63434662 38.744414 -19.72866047 36.32024855 -21.69595337 34.01385498 C-23.19245016 32.78233358 -24.78194239 31.66627311 -26.375 30.5625 C-30.54510329 25.00236229 -30.21956988 18.20536696 -29.375 11.5625 C-27.48778506 6.09307151 -23.76724488 2.21023108 -18.74609375 -0.58984375 C-12.71105233 -2.7473462 -5.91134563 -2.44607405 0 0 Z " fill="#FEFDFA" transform="translate(264.375,274.4375)"/>
<path d="M0 0 C16.50627225 -0.68898584 30.79446151 1.30430391 45.55810547 9.13525391 C46.37408203 9.55291016 47.19005859 9.97056641 48.03076172 10.40087891 C65.06147133 19.79340972 77.44931329 36.09873792 83.65966797 54.37744141 C85.29759854 60.393392 86.05998224 65.9119819 85.55810547 72.13525391 C83.55810547 74.13525391 83.55810547 74.13525391 80.05810547 74.38525391 C76.55810547 74.13525391 76.55810547 74.13525391 74.55810547 72.13525391 C73.96728516 70.33862305 73.96728516 70.33862305 73.47998047 68.17041016 C73.29193848 67.37554199 73.10389648 66.58067383 72.91015625 65.76171875 C72.71147949 64.91561035 72.51280273 64.06950195 72.30810547 63.19775391 C70.37577171 55.46986415 68.06217395 48.79151275 63.55810547 42.13525391 C62.77306641 40.97509766 62.77306641 40.97509766 61.97216797 39.79150391 C51.21189584 25.04033273 36.28636316 16.72927145 18.55810547 13.13525391 C13.15228062 12.61944549 7.72700793 12.83420704 2.30810547 13.01025391 C0.21156856 13.06569234 -1.88469608 13.1149047 -3.98162842 13.15261841 C-5.85182322 13.18794489 -7.72161939 13.24280277 -9.59130859 13.29882812 C-12.44189453 13.13525391 -12.44189453 13.13525391 -14.44189453 11.13525391 C-15.00971368 4.88924327 -15.00971368 4.88924327 -13.17602539 2.4543457 C-11.12153973 0.89157138 -9.93971254 0.66607526 -7.38330078 0.46728516 C-6.58553223 0.4036377 -5.78776367 0.33999023 -4.96582031 0.27441406 C-3.31053556 0.18314764 -1.65526172 0.09168316 0 0 Z " fill="#BADDFE" transform="translate(286.44189453125,41.86474609375)"/>
<path d="M0 0 C3.4375 0.875 3.4375 0.875 5.4375 3.875 C5.6328125 6.13671875 5.6328125 6.13671875 5.5625 8.5625 C5.54445312 9.37074219 5.52640625 10.17898438 5.5078125 11.01171875 C5.48460937 11.62660156 5.46140625 12.24148438 5.4375 12.875 C6.489375 12.215 7.54125 11.555 8.625 10.875 C11.70456449 9.12680279 13.83821553 8.17513913 17.4375 8.875 C19.25 10 19.25 10 20.4375 11.875 C20.9375 14.8125 20.9375 14.8125 20.4375 17.875 C18.125 20.0625 18.125 20.0625 15.4375 21.875 C14.4201127 22.85730498 13.41153883 23.84969597 12.4375 24.875 C13.200625 25.143125 13.96375 25.41125 14.75 25.6875 C18.8147242 27.48354093 18.8147242 27.48354093 20.4375 29.875 C20.875 32.875 20.875 32.875 20.4375 35.875 C18.8125 37.8125 18.8125 37.8125 16.4375 38.875 C12.01216524 38.68668788 9.07476105 37.33550012 5.4375 34.875 C5.48390625 35.47828125 5.5303125 36.0815625 5.578125 36.703125 C5.87220483 43.21489267 5.87220483 43.21489267 3.75 46.4375 C0.98565528 48.15587645 -0.36624487 48.44868682 -3.5625 47.875 C-5.84561954 46.1682019 -6.49215321 45.21599396 -7.07421875 42.39453125 C-7.13222656 41.50121094 -7.19023437 40.60789062 -7.25 39.6875 C-7.31574219 38.78644531 -7.38148438 37.88539063 -7.44921875 36.95703125 C-7.48660156 36.26996094 -7.52398437 35.58289063 -7.5625 34.875 C-9.109375 35.8959375 -9.109375 35.8959375 -10.6875 36.9375 C-13.51353934 38.55401743 -14.4847689 38.87646662 -17.875 38.8125 C-20.5625 37.875 -20.5625 37.875 -22.5625 34.875 C-22.5625 31.9375 -22.5625 31.9375 -21.5625 28.875 C-16.61513158 24.875 -16.61513158 24.875 -13.5625 24.875 C-13.5625 24.215 -13.5625 23.555 -13.5625 22.875 C-14.305 22.6275 -15.0475 22.38 -15.8125 22.125 C-18.89473096 20.72398593 -20.57619297 19.62527127 -22.5625 16.875 C-22.41455998 13.1764996 -22.20444427 11.51694427 -19.5625 8.875 C-14.57095374 9.16297382 -10.90298131 10.44009585 -6.5625 12.875 C-6.61470703 11.84439453 -6.61470703 11.84439453 -6.66796875 10.79296875 C-6.70857422 9.44138672 -6.70857422 9.44138672 -6.75 8.0625 C-6.78480469 7.16917969 -6.81960937 6.27585937 -6.85546875 5.35546875 C-6.5625 2.875 -6.5625 2.875 -5.2734375 1.04296875 C-3.5625 -0.125 -3.5625 -0.125 0 0 Z " fill="#FAFCFE" transform="translate(166.5625,425.125)"/>
<path d="M0 0 C1.64453125 1.1953125 1.64453125 1.1953125 3 3 C3.29296875 5.48046875 3.29296875 5.48046875 3.1875 8.1875 C3.16042969 9.08855469 3.13335937 9.98960937 3.10546875 10.91796875 C3.07066406 11.60503906 3.03585937 12.29210937 3 13 C4.010625 12.319375 5.02125 11.63875 6.0625 10.9375 C9.11299119 9.18904773 10.09053216 9.00148413 13.8125 9.0625 C17 10 17 10 19 13 C19 15.9375 19 15.9375 18 19 C13.05263158 23 13.05263158 23 10 23 C10 23.66 10 24.32 10 25 C10.7425 25.2475 11.485 25.495 12.25 25.75 C15.30198066 27.13726393 16.9994481 28.30694937 19 31 C18.92939767 33.89469562 18.38702969 35.43880695 16.75 37.8125 C14.23878633 39.51653785 13.00408211 39.47792215 10 39 C7.5372056 37.81724427 5.32231618 36.45713956 3 35 C3.04640625 35.68707031 3.0928125 36.37414062 3.140625 37.08203125 C3.19476563 38.43361328 3.19476563 38.43361328 3.25 39.8125 C3.31960938 41.15248047 3.31960938 41.15248047 3.390625 42.51953125 C3 45 3 45 1.14453125 46.83203125 C-1 48 -1 48 -3.5625 47.875 C-6.22996689 46.91744778 -7.26883069 46.21370789 -9 44 C-9.29296875 41.73828125 -9.29296875 41.73828125 -9.1875 39.3125 C-9.16042969 38.50425781 -9.13335937 37.69601562 -9.10546875 36.86328125 C-9.07066406 36.24839844 -9.03585937 35.63351562 -9 35 C-10.051875 35.66 -11.10375 36.32 -12.1875 37 C-15.26706449 38.74819721 -17.40071553 39.69986087 -21 39 C-22.8125 37.875 -22.8125 37.875 -24 36 C-24.5 33.0625 -24.5 33.0625 -24 30 C-21.77538218 27.83392475 -19.76622478 26.38311239 -17 25 C-17 24.34 -17 23.68 -17 23 C-18.96722008 21.61876037 -20.96868328 20.28511874 -23 19 C-24 18 -24 18 -24.25 15.125 C-24 12 -24 12 -22.9375 10.0625 C-19.81276601 8.3489362 -17.37587184 9.23006432 -14 10 C-12.65230528 10.63713512 -11.3149339 11.2977386 -10 12 C-9.89042969 11.30132812 -9.78085937 10.60265625 -9.66796875 9.8828125 C-9.43013672 8.51769531 -9.43013672 8.51769531 -9.1875 7.125 C-9.03667969 6.22007812 -8.88585937 5.31515625 -8.73046875 4.3828125 C-7.35810521 -0.09388141 -4.18953655 -0.52369207 0 0 Z " fill="#FAFCFE" transform="translate(439,425)"/>
<path d="M0 0 C1.64453125 1.1953125 1.64453125 1.1953125 3 3 C3.29296875 5.48046875 3.29296875 5.48046875 3.1875 8.1875 C3.16042969 9.08855469 3.13335937 9.98960937 3.10546875 10.91796875 C3.07066406 11.60503906 3.03585938 12.29210937 3 13 C4.010625 12.319375 5.02125 11.63875 6.0625 10.9375 C9.13534721 9.16998829 10.0556657 9.0018251 13.8125 9.125 C17 10 17 10 19 12 C19 15.375 19 15.375 18 19 C13.17948718 23 13.17948718 23 10 23 C10 23.66 10 24.32 10 25 C10.928125 25.268125 11.85625 25.53625 12.8125 25.8125 C17.58823529 27.5916955 17.58823529 27.5916955 19 30 C18.875 33.5625 18.875 33.5625 18 37 C15 39 15 39 12.1875 38.8125 C8.81256717 37.952223 6.04764834 36.66895028 3 35 C3.04640625 35.68707031 3.0928125 36.37414062 3.140625 37.08203125 C3.19476563 38.43361328 3.19476563 38.43361328 3.25 39.8125 C3.31960937 41.15248047 3.31960937 41.15248047 3.390625 42.51953125 C3 45 3 45 1.14453125 46.83203125 C-1 48 -1 48 -3.5625 47.875 C-6.22996689 46.91744778 -7.26883069 46.21370789 -9 44 C-9.29296875 41.73828125 -9.29296875 41.73828125 -9.1875 39.3125 C-9.16042969 38.50425781 -9.13335937 37.69601562 -9.10546875 36.86328125 C-9.07066406 36.24839844 -9.03585938 35.63351562 -9 35 C-10.051875 35.66 -11.10375 36.32 -12.1875 37 C-15.26706449 38.74819721 -17.40071553 39.69986087 -21 39 C-22.8125 37.875 -22.8125 37.875 -24 36 C-24.5 33.0625 -24.5 33.0625 -24 30 C-21.27061743 27.19480124 -18.89523329 25.5770716 -15 25 C-15 24.34 -15 23.68 -15 23 C-15.7425 22.731875 -16.485 22.46375 -17.25 22.1875 C-19.99053046 21.00408912 -21.92619135 20.15061637 -24 18 C-24.46333792 14.82282567 -24.49286352 12.89875113 -22.9375 10.0625 C-19.81276601 8.3489362 -17.37587184 9.23006432 -14 10 C-12.65230528 10.63713512 -11.3149339 11.2977386 -10 12 C-9.89042969 11.30132812 -9.78085938 10.60265625 -9.66796875 9.8828125 C-9.43013672 8.51769531 -9.43013672 8.51769531 -9.1875 7.125 C-9.03667969 6.22007812 -8.88585937 5.31515625 -8.73046875 4.3828125 C-7.35810521 -0.09388141 -4.18953655 -0.52369207 0 0 Z " fill="#FAFCFE" transform="translate(236,425)"/>
<path d="M0 0 C3.4375 0.875 3.4375 0.875 5.4375 3.875 C5.97666146 6.5352023 6.17120098 9.16762663 6.4375 11.875 C7.118125 11.359375 7.79875 10.84375 8.5 10.3125 C12.28259052 8.46144507 14.40417699 8.88569435 18.4375 9.875 C20.4375 11.875 20.4375 11.875 21 14.6875 C20.35838964 18.32329205 19.9125994 18.67019773 17.0625 20.75 C13.81485849 22.875 13.81485849 22.875 11.4375 22.875 C11.4375 23.535 11.4375 24.195 11.4375 24.875 C12.365625 25.143125 13.29375 25.41125 14.25 25.6875 C19.02573529 27.4666955 19.02573529 27.4666955 20.4375 29.875 C20.3125 33.4375 20.3125 33.4375 19.4375 36.875 C16.4375 38.875 16.4375 38.875 13.5625 38.6875 C10.38291088 37.86080683 8.14538778 36.70680644 5.4375 34.875 C5.48390625 35.47828125 5.5303125 36.0815625 5.578125 36.703125 C5.87220483 43.21489267 5.87220483 43.21489267 3.75 46.4375 C0.98565528 48.15587645 -0.36624487 48.44868682 -3.5625 47.875 C-5.84561954 46.1682019 -6.49215321 45.21599396 -7.07421875 42.39453125 C-7.13222656 41.50121094 -7.19023437 40.60789062 -7.25 39.6875 C-7.31574219 38.78644531 -7.38148438 37.88539063 -7.44921875 36.95703125 C-7.48660156 36.26996094 -7.52398437 35.58289063 -7.5625 34.875 C-9.109375 35.8959375 -9.109375 35.8959375 -10.6875 36.9375 C-13.51353934 38.55401743 -14.4847689 38.87646662 -17.875 38.8125 C-20.5625 37.875 -20.5625 37.875 -22.5625 34.875 C-23 32.4375 -23 32.4375 -22.5625 29.875 C-19.80634275 27.11884275 -17.44752164 25.45055876 -13.5625 24.875 C-13.5625 24.215 -13.5625 23.555 -13.5625 22.875 C-14.305 22.6275 -15.0475 22.38 -15.8125 22.125 C-18.86121536 20.73922029 -20.51873982 19.52431875 -22.5625 16.875 C-23.05744413 13.9760415 -22.94895798 12.55698467 -21.5 10 C-18.34813869 8.16988698 -16.01551589 9.0556403 -12.5625 9.875 C-9.125 11.4375 -9.125 11.4375 -6.5625 12.875 C-6.61470703 11.84439453 -6.61470703 11.84439453 -6.66796875 10.79296875 C-6.70857422 9.44138672 -6.70857422 9.44138672 -6.75 8.0625 C-6.78480469 7.16917969 -6.81960938 6.27585937 -6.85546875 5.35546875 C-6.5625 2.875 -6.5625 2.875 -5.2734375 1.04296875 C-3.5625 -0.125 -3.5625 -0.125 0 0 Z " fill="#FAFCFE" transform="translate(369.5625,425.125)"/>
<path d="M0 0 C3.4375 0.8125 3.4375 0.8125 5.4375 2.8125 C5.6328125 5.1953125 5.6328125 5.1953125 5.5625 7.9375 C5.54445313 8.84757812 5.52640625 9.75765625 5.5078125 10.6953125 C5.48460937 11.39398438 5.46140625 12.09265625 5.4375 12.8125 C6.448125 12.131875 7.45875 11.45125 8.5 10.75 C11.59742259 8.96472384 12.51452998 8.81498484 16.3125 8.9375 C17.859375 9.370625 17.859375 9.370625 19.4375 9.8125 C20.87485246 12.68720493 20.81922649 14.63144588 20.4375 17.8125 C18.125 20 18.125 20 15.4375 21.8125 C14.4201127 22.79480498 13.41153883 23.78719597 12.4375 24.8125 C13.200625 25.080625 13.96375 25.34875 14.75 25.625 C18.8147242 27.42104093 18.8147242 27.42104093 20.4375 29.8125 C20.83519128 32.99403026 20.98948782 34.94094028 19.25 37.6875 C16.68412992 39.28010901 15.43487909 39.28935576 12.4375 38.8125 C9.9747056 37.62974427 7.75981618 36.26963956 5.4375 34.8125 C5.48390625 35.41578125 5.5303125 36.0190625 5.578125 36.640625 C5.87043247 43.11314755 5.87043247 43.11314755 3.8125 46.4375 C1.4375 47.8125 1.4375 47.8125 -1.6875 47.75 C-4.5625 46.8125 -4.5625 46.8125 -6.5625 43.8125 C-6.7578125 41.55078125 -6.7578125 41.55078125 -6.6875 39.125 C-6.66945313 38.31675781 -6.65140625 37.50851562 -6.6328125 36.67578125 C-6.60960937 36.06089844 -6.58640625 35.44601562 -6.5625 34.8125 C-7.08199219 35.11285156 -7.60148437 35.41320312 -8.13671875 35.72265625 C-13.8592513 38.84307603 -13.8592513 38.84307603 -17.4375 38.6875 C-19.5625 37.8125 -19.5625 37.8125 -21.5625 35.8125 C-22.0625 32.4375 -22.0625 32.4375 -21.5625 28.8125 C-16.84455128 24.8125 -16.84455128 24.8125 -13.5625 24.8125 C-15.37959396 22.89976952 -17.01587552 21.51727873 -19.25 20.0625 C-21.5625 17.8125 -21.5625 17.8125 -22.0625 14.1875 C-21.8975 13.07375 -21.7325 11.96 -21.5625 10.8125 C-18.5625 8.8125 -18.5625 8.8125 -15.1875 9 C-11.69710935 9.78232894 -9.47202891 10.78464652 -6.5625 12.8125 C-6.61470703 11.78189453 -6.61470703 11.78189453 -6.66796875 10.73046875 C-6.70857422 9.37888672 -6.70857422 9.37888672 -6.75 8 C-6.78480469 7.10667969 -6.81960938 6.21335937 -6.85546875 5.29296875 C-6.5625 2.8125 -6.5625 2.8125 -5.2734375 0.9765625 C-3.5625 -0.1875 -3.5625 -0.1875 0 0 Z " fill="#FBFDFE" transform="translate(301.5625,425.1875)"/>
<path d="M0 0 C3.4375 0.8125 3.4375 0.8125 5.4375 2.8125 C5.6328125 5.1953125 5.6328125 5.1953125 5.5625 7.9375 C5.54445313 8.84757812 5.52640625 9.75765625 5.5078125 10.6953125 C5.48460938 11.39398438 5.46140625 12.09265625 5.4375 12.8125 C6.448125 12.131875 7.45875 11.45125 8.5 10.75 C12.4007776 8.49374575 15.04474663 8.67038412 19.4375 9.8125 C20.4375 10.8125 20.4375 10.8125 20.8125 14.125 C20.4375 17.8125 20.4375 17.8125 18.125 20.0625 C17.238125 20.64 16.35125 21.2175 15.4375 21.8125 C14.4201127 22.79480498 13.41153883 23.78719597 12.4375 24.8125 C13.200625 25.10125 13.96375 25.39 14.75 25.6875 C17.4375 26.8125 17.4375 26.8125 20.4375 28.8125 C21.08575345 34.75482331 21.08575345 34.75482331 19.25 37.75 C16.67605008 39.25886719 15.40287947 39.28426492 12.4375 38.8125 C9.9747056 37.62974427 7.75981618 36.26963956 5.4375 34.8125 C5.48390625 35.41578125 5.5303125 36.0190625 5.578125 36.640625 C5.87043247 43.11314755 5.87043247 43.11314755 3.8125 46.4375 C1.4375 47.8125 1.4375 47.8125 -1.6875 47.75 C-4.5625 46.8125 -4.5625 46.8125 -6.5625 43.8125 C-6.7578125 41.55078125 -6.7578125 41.55078125 -6.6875 39.125 C-6.66945313 38.31675781 -6.65140625 37.50851562 -6.6328125 36.67578125 C-6.60960938 36.06089844 -6.58640625 35.44601562 -6.5625 34.8125 C-7.614375 35.4725 -8.66625 36.1325 -9.75 36.8125 C-12.82956449 38.56069721 -14.96321553 39.51236087 -18.5625 38.8125 C-20.375 37.6875 -20.375 37.6875 -21.5625 35.8125 C-22.125 32.9375 -22.125 32.9375 -21.5625 29.8125 C-19.73126758 27.66206193 -17.94262367 26.43098409 -15.5625 24.8125 C-14.9025 24.8125 -14.2425 24.8125 -13.5625 24.8125 C-15.37481023 22.90480502 -17.04802127 21.48505542 -19.25 20 C-21.5625 17.8125 -21.5625 17.8125 -22.0625 14.75 C-21.5625 11.8125 -21.5625 11.8125 -20.5 9.875 C-17.33828164 8.14115445 -14.97444805 8.98892633 -11.5625 9.8125 C-8.625 11.375 -8.625 11.375 -6.5625 12.8125 C-6.61470703 11.78189453 -6.61470703 11.78189453 -6.66796875 10.73046875 C-6.70857422 9.37888672 -6.70857422 9.37888672 -6.75 8 C-6.78480469 7.10667969 -6.81960937 6.21335937 -6.85546875 5.29296875 C-6.5625 2.8125 -6.5625 2.8125 -5.2734375 0.9765625 C-3.5625 -0.1875 -3.5625 -0.1875 0 0 Z " fill="#FBFDFE" transform="translate(98.5625,425.1875)"/>
<path d="M0 0 C0 0.33 0 0.66 0 1 C-0.84820312 1.13535156 -1.69640625 1.27070313 -2.5703125 1.41015625 C-20.18495938 4.6427343 -35.20898305 13.56863998 -46 28 C-55.52235008 42.40560653 -58.59475029 55.76572057 -58.75 72.8125 C-58.77823646 74.39130758 -58.80817422 75.97008568 -58.83984375 77.54882812 C-58.91278581 81.3658308 -58.96290883 85.18248759 -59 89 C-61.64 89 -64.28 89 -67 89 C-67.07539006 84.965665 -67.12917203 80.93161493 -67.16479492 76.89672852 C-67.17967888 75.53044474 -67.19999286 74.16420692 -67.22631836 72.7980957 C-67.45858856 60.41490598 -66.20827511 48.95150436 -60.375 37.875 C-60.02872559 37.2046875 -59.68245117 36.534375 -59.32568359 35.84375 C-50.20184526 18.79625609 -35.61449622 8.35923625 -17.76171875 1.8125 C-11.89195691 0.08561108 -6.06611536 -0.1263774 0 0 Z " fill="#BCDEFF" transform="translate(253,150)"/>
<path d="M0 0 C5.93803299 0.36355304 9.65181802 1.88860021 14 6 C18.32411558 11.32198841 18.66789859 16.04522688 18.45703125 22.83203125 C17.79766065 27.40254025 16.14311212 30.64183284 13 34 C12.31832764 34.35457275 11.63665527 34.70914551 10.93432617 35.07446289 C8.41726983 37.5800824 8.53926082 39.53007374 8.52259827 42.97969055 C8.5370549 43.77658798 8.55151154 44.57348541 8.56640625 45.39453125 C8.55679694 47.0891936 8.54702623 48.78385504 8.53710938 50.47851562 C8.545695 53.14471995 8.56248484 55.81068204 8.5847168 58.47680664 C8.59928545 61.05402465 8.5839474 63.62986148 8.56640625 66.20703125 C8.58288712 66.99785599 8.59936798 67.78868073 8.61634827 68.60346985 C8.57993278 72.66378274 8.20964957 75.26989993 5.67163086 78.52612305 C3 81 3 81 -0.3125 81.375 C-1.6428125 81.189375 -1.6428125 81.189375 -3 81 C-2.34821777 80.02240723 -1.69643555 79.04481445 -1.02490234 78.03759766 C1.40194942 73.77212053 1.51038498 70.21845889 1.3984375 65.3984375 C1.40317006 63.75781106 1.40839295 62.11718597 1.4140625 60.4765625 C1.39929429 57.91772395 1.37478729 55.3594247 1.33984375 52.80078125 C1.31316284 50.31183387 1.32276914 47.8249465 1.3359375 45.3359375 C1.31429535 44.57437347 1.2926532 43.81280945 1.27035522 43.02816772 C1.29741145 40.11072035 1.36704451 37.74153941 3.31427002 35.46026611 C4.81349151 34.22645894 6.40504473 33.10727725 8 32 C11.59702375 27.20396834 11.61712933 22.07753334 11.484375 16.26953125 C10.72783184 11.16286491 8.53594719 7.69328442 5 4 C2.33182641 2.0250123 2.33182641 2.0250123 0 1 C0 0.67 0 0.34 0 0 Z " fill="#F9AE05" transform="translate(262,273)"/>
<path d="M0 0 C9.70389164 -1.00385086 18.00884739 2.48274481 25.91015625 8.05078125 C31.61388173 12.89421631 35.80132122 18.23394738 39 25 C39.54398437 26.10214844 40.08796875 27.20429688 40.6484375 28.33984375 C42.99635422 34.76100027 42.31327434 41.76355805 42.1875 48.5 C42.17242613 49.90883986 42.1587425 51.31769532 42.14648438 52.7265625 C42.11129724 56.15144396 42.06206079 59.57551763 42 63 C39.69 63 37.38 63 35 63 C34.98541748 62.23969482 34.97083496 61.47938965 34.95581055 60.69604492 C34.88053623 57.19273041 34.7841412 53.69028768 34.6875 50.1875 C34.65366211 48.3940918 34.65366211 48.3940918 34.61914062 46.56445312 C34.21495033 33.07919509 31.53672114 21.42460463 21.63671875 11.671875 C15.30993986 6.35856147 8.32969149 2.0747989 0 1 C0 0.67 0 0.34 0 0 Z " fill="#BCDEFF" transform="translate(262,176)"/>
<path d="M0 0 C2.375 0.3125 2.375 0.3125 5 1 C7 4 7 4 7 6.9375 C5.66373997 11.02979633 3.72905564 12.02131742 0 14 C-0.66 14 -1.32 14 -2 14 C-2 14.66 -2 15.32 -2 16 C-1.071875 16.268125 -0.14375 16.53625 0.8125 16.8125 C5.58823529 18.5916955 5.58823529 18.5916955 7 21 C6.875 24.5625 6.875 24.5625 6 28 C5.01 28.66 4.02 29.32 3 30 C2.01 29.67 1.02 29.34 0 29 C0.66 28.01 1.32 27.02 2 26 C2.83425785 23.58825707 2.83425785 23.58825707 2 21 C0.00416177 19.47915384 -2.03644489 18.29307538 -4.25 17.11328125 C-5.11625 16.56220703 -5.11625 16.56220703 -6 16 C-6 15.34 -6 14.68 -6 14 C-4.69753541 13.19758878 -3.35679819 12.45666572 -2 11.75 C0.20335526 10.50192779 0.20335526 10.50192779 2 9 C2.83399875 5.91318914 2.83399875 5.91318914 2 3 C1.34 2.01 0.68 1.02 0 0 Z " fill="#3699FC" transform="translate(387,434)"/>
<path d="M0 0 C2.86724686 0.57344937 3.8614515 0.8614515 6 3 C6.0625 6.3125 6.0625 6.3125 5 10 C2.81116082 12.10505586 0.63256414 13.42046152 -2 15 C0.64 16.98 3.28 18.96 6 21 C5.6875 24.375 5.6875 24.375 5 28 C4.01 28.66 3.02 29.32 2 30 C1.01 29.67 0.02 29.34 -1 29 C-0.34 28.34 0.32 27.68 1 27 C1.75137168 24.1292764 1.75137168 24.1292764 1 21 C-1.12123368 18.96340407 -3.4586702 17.46515443 -6 16 C-5 13 -5 13 -1.9375 11.1875 C-0.968125 10.465625 0.00125 9.74375 1 9 C1.50447885 5.46864805 1.12530066 3.37590199 0 0 Z " fill="#3498FC" transform="translate(185,434)"/>
<path d="M0 0 C2.375 0.3125 2.375 0.3125 5 1 C7 4 7 4 7 6.375 C5.53210678 10.22821971 3.34308733 11.61208048 0 14 C-0.66 14 -1.32 14 -2 14 C-2 14.66 -2 15.32 -2 16 C-1.2575 16.2475 -0.515 16.495 0.25 16.75 C3.30198066 18.13726393 4.9994481 19.30694937 7 22 C6.92509796 25.07098379 6.44344796 26.48560036 4.4375 28.8125 C3.963125 29.204375 3.48875 29.59625 3 30 C2.01 29.67 1.02 29.34 0 29 C0.66 28.01 1.32 27.02 2 26 C2.83425785 23.58825707 2.83425785 23.58825707 2 21 C0.00416177 19.47915384 -2.03644489 18.29307538 -4.25 17.11328125 C-5.11625 16.56220703 -5.11625 16.56220703 -6 16 C-6 15.34 -6 14.68 -6 14 C-4.865625 13.484375 -3.73125 12.96875 -2.5625 12.4375 C0.68683598 10.5957711 0.91896987 10.27168926 2.0625 6.4375 C2.3069254 2.87594836 2.3069254 2.87594836 0 0 Z " fill="#3096FC" transform="translate(252,434)"/>
<path d="M0 0 C2.86724686 0.57344937 3.8614515 0.8614515 6 3 C6.4375 5.875 6.4375 5.875 6 9 C3.6875 11.1875 3.6875 11.1875 1 13 C-0.0173873 13.98230498 -1.02596117 14.97469597 -2 16 C-1.236875 16.268125 -0.47375 16.53625 0.3125 16.8125 C4.3772242 18.60854093 4.3772242 18.60854093 6 21 C6.5 24 6.5 24 6 27 C3.5 28.875 3.5 28.875 1 30 C1 26.37 1 22.74 1 19 C-1.475 18.01 -1.475 18.01 -4 17 C-4.66 16.67 -5.32 16.34 -6 16 C-5 13 -5 13 -1.9375 11.1875 C-0.968125 10.465625 0.00125 9.74375 1 9 C1.50447885 5.46864805 1.12530066 3.37590199 0 0 Z " fill="#399AFC" transform="translate(320,434)"/>
<path d="M0 0 C2.86724686 0.57344937 3.8614515 0.8614515 6 3 C6.4375 5.875 6.4375 5.875 6 9 C3.6875 11.1875 3.6875 11.1875 1 13 C-0.0173873 13.98230498 -1.02596117 14.97469597 -2 16 C-1.236875 16.268125 -0.47375 16.53625 0.3125 16.8125 C4.3772242 18.60854093 4.3772242 18.60854093 6 21 C6.5 24 6.5 24 6 27 C3.5 28.875 3.5 28.875 1 30 C1 26.7 1 23.4 1 20 C-2.465 18.02 -2.465 18.02 -6 16 C-5 13 -5 13 -1.9375 11.25 C-0.4834375 10.13625 -0.4834375 10.13625 1 9 C1.42056706 5.5153015 1.58368102 3.16736204 0 0 Z " fill="#3A9BFC" transform="translate(117,434)"/>
<path d="M0 0 C2.4375 0.375 2.4375 0.375 5 1 C6.462958 3.925916 6.44523109 5.75617347 6 9 C4.1778518 11.15854479 2.37963631 12.38184731 0 14 C-0.66 14 -1.32 14 -2 14 C-2 14.66 -2 15.32 -2 16 C-1.236875 16.268125 -0.47375 16.53625 0.3125 16.8125 C4.3772242 18.60854093 4.3772242 18.60854093 6 21 C6.41062354 24.28498832 6.6171336 26.15845419 4.625 28.875 C3 30 3 30 1 30 C1.2475 28.7625 1.495 27.525 1.75 26.25 C2.21148584 22.70104881 2.21148584 22.70104881 0.3125 19.625 C-1.74592194 18.17854134 -3.69016474 16.9899294 -6 16 C-6 15.34 -6 14.68 -6 14 C-4.865625 13.46375 -3.73125 12.9275 -2.5625 12.375 C0.37608614 10.69750751 0.87943219 10.34042675 2.0625 7 C1.99989211 3.99482146 1.62612006 2.48700716 0 0 Z " fill="#3096FC" transform="translate(455,434)"/>
<path d="M0 0 C1.32 0.33 2.64 0.66 4 1 C4.36923077 8.38461538 4.36923077 8.38461538 2.5 11.5 C2.005 11.995 1.51 12.49 1 13 C-0.32 12.67 -1.64 12.34 -3 12 C-2.34 11.34 -1.68 10.68 -1 10 C-0.53837573 7.56747339 -0.53837573 7.56747339 -0.375 4.875 C-0.30023438 3.96492188 -0.22546875 3.05484375 -0.1484375 2.1171875 C-0.09945312 1.41851562 -0.05046875 0.71984375 0 0 Z " fill="#3B9BFC" transform="translate(239,460)"/>
<path d="M0 0 C1.32 0.33 2.64 0.66 4 1 C4.49230769 8.38461538 4.49230769 8.38461538 2 11.5 C1.34 11.995 0.68 12.49 0 13 C-0.99 12.67 -1.98 12.34 -3 12 C-2.34 11.01 -1.68 10.02 -1 9 C-0.54605448 6.72087062 -0.54605448 6.72087062 -0.375 4.3125 C-0.30023438 3.50425781 -0.22546875 2.69601562 -0.1484375 1.86328125 C-0.09945312 1.24839844 -0.05046875 0.63351562 0 0 Z " fill="#3498FC" transform="translate(104,460)"/>
<path d="M0 0 C2.86724686 0.57344937 3.8614515 0.8614515 6 3 C6.1953125 5.1640625 6.1953125 5.1640625 6.125 7.625 C6.10695312 8.44226563 6.08890625 9.25953125 6.0703125 10.1015625 C6.03550781 11.04128906 6.03550781 11.04128906 6 12 C4.68 12.33 3.36 12.66 2 13 C1.93941406 12.31292969 1.87882813 11.62585938 1.81640625 10.91796875 C1.73261719 10.01691406 1.64882812 9.11585938 1.5625 8.1875 C1.48128906 7.29417969 1.40007812 6.40085937 1.31640625 5.48046875 C1.06510233 2.87256441 1.06510233 2.87256441 0 0 Z " fill="#3D9CFC" transform="translate(237,425)"/>
<path d="M0 0 C1.32 0.33 2.64 0.66 4 1 C4.49230769 8.38461538 4.49230769 8.38461538 2 11.5 C1.34 11.995 0.68 12.49 0 13 C-0.99 12.67 -1.98 12.34 -3 12 C-2.34 11.34 -1.68 10.68 -1 10 C-0.53837573 7.56747339 -0.53837573 7.56747339 -0.375 4.875 C-0.30023438 3.96492188 -0.22546875 3.05484375 -0.1484375 2.1171875 C-0.09945313 1.41851562 -0.05046875 0.71984375 0 0 Z " fill="#3699FC" transform="translate(442,460)"/>
<path d="M0 0 C4.875 1.875 4.875 1.875 6 3 C6.07179964 4.51928038 6.08392007 6.04167482 6.0625 7.5625 C6.05347656 8.38878906 6.04445313 9.21507812 6.03515625 10.06640625 C6.01775391 11.02353516 6.01775391 11.02353516 6 12 C4.68 12.33 3.36 12.66 2 13 C1.93941406 12.31292969 1.87882812 11.62585938 1.81640625 10.91796875 C1.73261719 10.01691406 1.64882813 9.11585938 1.5625 8.1875 C1.48128906 7.29417969 1.40007812 6.40085937 1.31640625 5.48046875 C1.06510233 2.87256441 1.06510233 2.87256441 0 0 Z " fill="#389AFC" transform="translate(440,425)"/>
<path d="M0 0 C2.375 0.3125 2.375 0.3125 5 1 C7.67927341 5.01891012 7.15601248 7.24161923 7 12 C5.68 12.33 4.36 12.66 3 13 C2.92652344 11.96939453 2.92652344 11.96939453 2.8515625 10.91796875 C2.77679688 10.01691406 2.70203125 9.11585938 2.625 8.1875 C2.55539063 7.29417969 2.48578125 6.40085937 2.4140625 5.48046875 C2.13354964 2.75601501 2.13354964 2.75601501 0 0 Z " fill="#3498FC" transform="translate(101,425)"/>
<path d="M0 0 C2.375 0.3125 2.375 0.3125 5 1 C7.4294516 4.6441774 7.16179575 6.71241272 7 11 C5.02 11.99 5.02 11.99 3 13 C2.92652344 11.96939453 2.92652344 11.96939453 2.8515625 10.91796875 C2.77679688 10.01691406 2.70203125 9.11585938 2.625 8.1875 C2.55539062 7.29417969 2.48578125 6.40085937 2.4140625 5.48046875 C2.13354964 2.75601501 2.13354964 2.75601501 0 0 Z " fill="#2F96FC" transform="translate(304,425)"/>
<path d="M0 0 C3 1 3 1 4 3 C4.3125 5.875 4.3125 5.875 4 9 C2 11.375 2 11.375 0 13 C-0.99 12.67 -1.98 12.34 -3 12 C-2.34 11.01 -1.68 10.02 -1 9 C-0.54605448 6.72087062 -0.54605448 6.72087062 -0.375 4.3125 C-0.30023438 3.50425781 -0.22546875 2.69601562 -0.1484375 1.86328125 C-0.09945313 1.24839844 -0.05046875 0.63351562 0 0 Z " fill="#2F96FC" transform="translate(307,460)"/>
<path d="M0 0 C0.99 0.33 1.98 0.66 3 1 C3.8125 4.1875 3.8125 4.1875 4 8 C1.5625 10.9375 1.5625 10.9375 -1 13 C-1.33 12.01 -1.66 11.02 -2 10 C-1.67 9.67 -1.34 9.34 -1 9 C-0.76807135 7.48530552 -0.58784762 5.96245438 -0.4375 4.4375 C-0.35371094 3.61121094 -0.26992187 2.78492188 -0.18359375 1.93359375 C-0.12300781 1.29550781 -0.06242188 0.65742188 0 0 Z " fill="#3197FC" transform="translate(172,460)"/>
<path d="M0 0 C2.86724686 0.57344937 3.8614515 0.8614515 6 3 C6.1953125 5.1640625 6.1953125 5.1640625 6.125 7.625 C6.10695312 8.44226563 6.08890625 9.25953125 6.0703125 10.1015625 C6.03550781 11.04128906 6.03550781 11.04128906 6 12 C5.01 12.33 4.02 12.66 3 13 C2.92652344 12.09507812 2.92652344 12.09507812 2.8515625 11.171875 C2.77679688 10.37265625 2.70203125 9.5734375 2.625 8.75 C2.55539063 7.96109375 2.48578125 7.1721875 2.4140625 6.359375 C1.98492887 3.914123 1.21399362 2.15163097 0 0 Z " fill="#2F95FC" transform="translate(169,425)"/>
<path d="M0 0 C0.99 0.33 1.98 0.66 3 1 C3.13536774 2.43489809 3.23217143 3.87347107 3.3125 5.3125 C3.37050781 6.11300781 3.42851562 6.91351563 3.48828125 7.73828125 C3.32714844 8.48464844 3.16601562 9.23101562 3 10 C0.525 11.485 0.525 11.485 -2 13 C-1.34 8.71 -0.68 4.42 0 0 Z " fill="#2F95FC" transform="translate(375,460)"/>
<path d="M0 0 C2.86724686 0.57344937 3.8614515 0.8614515 6 3 C6.1953125 5.1640625 6.1953125 5.1640625 6.125 7.625 C6.10695313 8.44226563 6.08890625 9.25953125 6.0703125 10.1015625 C6.03550781 11.04128906 6.03550781 11.04128906 6 12 C5.01 12.33 4.02 12.66 3 13 C2.92652344 12.09507812 2.92652344 12.09507812 2.8515625 11.171875 C2.77679688 10.37265625 2.70203125 9.5734375 2.625 8.75 C2.55539062 7.96109375 2.48578125 7.1721875 2.4140625 6.359375 C1.98492887 3.914123 1.21399362 2.15163097 0 0 Z " fill="#2C94FC" transform="translate(372,425)"/>
<path d="M0 0 C-1.98 0.99 -1.98 0.99 -4 2 C-4 2.66 -4 3.32 -4 4 C-2.68 4.66 -1.36 5.32 0 6 C-0.99 6.495 -0.99 6.495 -2 7 C-4.03144641 6.06553465 -6.03533587 5.06775224 -8 4 C-8 3.34 -8 2.68 -8 2 C-3.61016949 -1.20338983 -3.61016949 -1.20338983 0 0 Z " fill="#3F9DFC" transform="translate(254,446)"/>
<path d="M0 0 C0.99 0.33 1.98 0.66 3 1 C2.01 1.495 2.01 1.495 1 2 C1 2.66 1 3.32 1 4 C2.32 4.33 3.64 4.66 5 5 C4.67 5.99 4.34 6.98 4 8 C0.535 6.02 0.535 6.02 -3 4 C-3 3.34 -3 2.68 -3 2 C-2.01 1.34 -1.02 0.68 0 0 Z " fill="#3E9DFC" transform="translate(452,446)"/>
</svg>
